# Blender v3.1.2 OBJ File: 'PixelPerfect_Objects.blend'
# www.blender.org
mtllib BlackHole.mtl
o Cube
v -2.000000 1.000000 3.000000
v -2.000000 -1.000000 3.000000
v -2.000000 1.000000 -3.000000
v -2.000000 -1.000000 -3.000000
v 2.000000 1.000000 3.000000
v 2.000000 -1.000000 3.000000
v 2.000000 1.000000 -3.000000
v 2.000000 -1.000000 -3.000000
v -2.000000 1.000000 -2.000000
v -2.000000 1.000000 0.000000
v -2.000000 1.000000 2.000000
v -2.000000 -1.000000 2.000000
v -2.000000 -1.000000 0.000000
v -2.000000 -1.000000 -2.000000
v 2.000000 1.000000 2.000000
v 2.000000 1.000000 0.000000
v 2.000000 1.000000 -2.000000
v 2.000000 -1.000000 -2.000000
v 2.000000 -1.000000 0.000000
v 2.000000 -1.000000 2.000000
v 1.000000 -1.000000 -3.000000
v 1.000000 1.000000 3.000000
v 1.000000 1.000000 -3.000000
v 1.000000 -1.000000 3.000000
v 1.000000 -1.000000 -2.000000
v 1.000000 -1.000000 0.000000
v 1.000000 -1.000000 2.000000
v 1.000000 1.000000 -2.000000
v 1.000000 1.000000 0.000000
v 1.000000 1.000000 2.000000
v -1.000000 1.000000 -3.000000
v -1.000000 -1.000000 3.000000
v -1.000000 -1.000000 -3.000000
v -1.000000 1.000000 3.000000
v -1.000000 1.000000 -2.000000
v -1.000000 1.000000 0.000000
v -1.000000 1.000000 2.000000
v -1.000000 -1.000000 -2.000000
v -1.000000 -1.000000 0.000000
v -1.000000 -1.000000 2.000000
v 1.000000 -3.000000 2.000000
v -1.000000 -3.000000 2.000000
v 1.000000 3.000000 2.000000
v -1.000000 3.000000 2.000000
v 1.000000 -3.000000 -2.000000
v -1.000000 -3.000000 -2.000000
v 1.000000 3.000000 -2.000000
v -1.000000 3.000000 -2.000000
v 1.000000 2.000000 2.000000
v 1.000000 0.000000 2.000000
v 1.000000 -2.000000 2.000000
v -1.000000 -2.000000 2.000000
v -1.000000 0.000000 2.000000
v -1.000000 2.000000 2.000000
v 1.000000 -2.000000 -2.000000
v 1.000000 0.000000 -2.000000
v 1.000000 2.000000 -2.000000
v -1.000000 2.000000 -2.000000
v -1.000000 0.000000 -2.000000
v -1.000000 -2.000000 -2.000000
v -1.000000 3.000000 -1.000000
v 1.000000 -3.000000 -1.000000
v 1.000000 3.000000 -1.000000
v -1.000000 -3.000000 -1.000000
v -1.000000 2.000000 -1.000000
v -1.000000 0.000000 -1.000000
v -1.000000 -2.000000 -1.000000
v 1.000000 2.000000 -1.000000
v 1.000000 0.000000 -1.000000
v 1.000000 -2.000000 -1.000000
v 1.000000 3.000000 1.000000
v -1.000000 -3.000000 1.000000
v -1.000000 3.000000 1.000000
v 1.000000 -3.000000 1.000000
v 1.000000 2.000000 1.000000
v 1.000000 0.000000 1.000000
v 1.000000 -2.000000 1.000000
v -1.000000 2.000000 1.000000
v -1.000000 0.000000 1.000000
v -1.000000 -2.000000 1.000000
v 3.000000 2.000000 -1.000000
v 3.000000 2.000000 1.000000
v -3.000000 2.000000 -1.000000
v -3.000000 2.000000 1.000000
v 3.000000 -2.000000 -1.000000
v 3.000000 -2.000000 1.000000
v -3.000000 -2.000000 -1.000000
v -3.000000 -2.000000 1.000000
v -2.000000 2.000000 -1.000000
v 0.000000 2.000000 -1.000000
v 2.000000 2.000000 -1.000000
v 2.000000 2.000000 1.000000
v 0.000000 2.000000 1.000000
v -2.000000 2.000000 1.000000
v 2.000000 -2.000000 -1.000000
v 0.000000 -2.000000 -1.000000
v -2.000000 -2.000000 -1.000000
v -2.000000 -2.000000 1.000000
v 0.000000 -2.000000 1.000000
v 2.000000 -2.000000 1.000000
v -3.000000 -1.000000 1.000000
v 3.000000 -1.000000 -1.000000
v -3.000000 -1.000000 -1.000000
v 3.000000 -1.000000 1.000000
v -2.000000 -1.000000 1.000000
v 0.000000 -1.000000 1.000000
v 2.000000 -1.000000 1.000000
v -2.000000 -1.000000 -1.000000
v 0.000000 -1.000000 -1.000000
v 2.000000 -1.000000 -1.000000
v -3.000000 1.000000 -1.000000
v 3.000000 1.000000 1.000000
v -3.000000 1.000000 1.000000
v 3.000000 1.000000 -1.000000
v -2.000000 1.000000 -1.000000
v 0.000000 1.000000 -1.000000
v 2.000000 1.000000 -1.000000
v -2.000000 1.000000 1.000000
v 0.000000 1.000000 1.000000
v 2.000000 1.000000 1.000000
vt 0.546875 0.382812
vt 0.546875 0.335938
vt 0.453125 0.335938
vt 0.453125 0.382812
vt 0.067083 0.648438
vt 0.020208 0.648438
vt 0.020208 0.742188
vt 0.067083 0.742188
vt 0.547613 0.566240
vt 0.547613 0.613115
vt 0.453863 0.613115
vt 0.453863 0.566240
vt 0.854048 0.648438
vt 0.900923 0.648438
vt 0.900923 0.742188
vt 0.854048 0.742188
vt 0.834639 0.875000
vt 0.834639 0.921875
vt 0.787764 0.921875
vt 0.787764 0.875000
vt 0.243049 0.875000
vt 0.243049 0.921875
vt 0.289924 0.921875
vt 0.289924 0.875000
vt 0.243049 0.648438
vt 0.243049 0.695312
vt 0.289924 0.695312
vt 0.289924 0.648438
vt 0.243049 0.789062
vt 0.289924 0.789062
vt 0.834639 0.648438
vt 0.834639 0.695312
vt 0.787764 0.695312
vt 0.787764 0.648438
vt 0.834639 0.789062
vt 0.787764 0.789062
vt 0.547613 0.331865
vt 0.547613 0.378740
vt 0.453863 0.378740
vt 0.453863 0.331865
vt 0.547613 0.472490
vt 0.453863 0.472490
vt 0.546875 0.609375
vt 0.546875 0.562500
vt 0.453125 0.562500
vt 0.453125 0.609375
vt 0.546875 0.468750
vt 0.453125 0.468750
vt 0.452498 0.468750
vt 0.452498 0.562500
vt 0.546248 0.562500
vt 0.546248 0.468750
vt 0.787954 0.789062
vt 0.787954 0.875000
vt 0.834829 0.875000
vt 0.834829 0.789062
vt 0.787954 0.695312
vt 0.834829 0.695312
vt 0.787954 0.648438
vt 0.834829 0.648438
vt 0.019531 0.648438
vt 0.066406 0.648438
vt 0.066406 0.742188
vt 0.019531 0.742188
vt 0.787954 0.921875
vt 0.834829 0.921875
vt 0.546248 0.382812
vt 0.546248 0.335938
vt 0.452498 0.335938
vt 0.452498 0.382812
vt 0.777344 0.062500
vt 0.777344 0.156250
vt 0.691406 0.156250
vt 0.691406 0.062500
vt 0.290797 0.789062
vt 0.290797 0.875000
vt 0.243922 0.875000
vt 0.243922 0.789062
vt 0.290797 0.695312
vt 0.243922 0.695312
vt 0.290797 0.648438
vt 0.243922 0.648438
vt 0.898438 0.648438
vt 0.851562 0.648438
vt 0.851562 0.742188
vt 0.898438 0.742188
vt 0.290797 0.921875
vt 0.243922 0.921875
vt 0.777344 0.250000
vt 0.777344 0.296875
vt 0.691406 0.296875
vt 0.691406 0.250000
vt 0.452498 0.609375
vt 0.546248 0.609375
vt 0.691406 0.015625
vt 0.777344 0.015625
vt 0.343750 0.382812
vt 0.343750 0.335938
vt 0.437500 0.335938
vt 0.437500 0.382812
vt 0.851821 0.773438
vt 0.898696 0.773438
vt 0.898696 0.867188
vt 0.851821 0.867188
vt 0.750283 0.562500
vt 0.750283 0.609375
vt 0.844033 0.609375
vt 0.844033 0.562500
vt 0.984375 0.015625
vt 0.937500 0.015625
vt 0.937500 0.109375
vt 0.984375 0.109375
vt 0.224609 0.250000
vt 0.224609 0.296875
vt 0.177734 0.296875
vt 0.177734 0.250000
vt 0.109375 0.250000
vt 0.109375 0.296875
vt 0.156250 0.296875
vt 0.156250 0.250000
vt 0.109375 0.015625
vt 0.109375 0.062500
vt 0.156250 0.062500
vt 0.156250 0.015625
vt 0.109375 0.156250
vt 0.156250 0.156250
vt 0.224609 0.015625
vt 0.224609 0.062500
vt 0.177734 0.062500
vt 0.177734 0.015625
vt 0.224609 0.156250
vt 0.177734 0.156250
vt 0.750283 0.335938
vt 0.750283 0.382812
vt 0.844033 0.382812
vt 0.844033 0.335938
vt 0.750283 0.468750
vt 0.844033 0.468750
vt 0.343750 0.609375
vt 0.343750 0.562500
vt 0.437500 0.562500
vt 0.437500 0.609375
vt 0.343750 0.468750
vt 0.437500 0.468750
vt 0.646484 0.156250
vt 0.646484 0.250000
vt 0.552734 0.250000
vt 0.552734 0.156250
vt 0.843750 0.468750
vt 0.843750 0.562500
vt 0.890625 0.562500
vt 0.890625 0.468750
vt 0.843750 0.382812
vt 0.890625 0.382812
vt 0.843750 0.335938
vt 0.890625 0.335938
vt 0.116770 0.773438
vt 0.163645 0.773438
vt 0.163645 0.867188
vt 0.116770 0.867188
vt 0.843750 0.609375
vt 0.890625 0.609375
vt 0.552734 0.062500
vt 0.552734 0.015625
vt 0.646484 0.015625
vt 0.646484 0.062500
vt 0.015625 0.062500
vt 0.015625 0.156250
vt 0.155630 0.164024
vt 0.155630 0.249961
vt 0.108755 0.249961
vt 0.108755 0.164024
vt 0.155630 0.070274
vt 0.108755 0.070274
vt 0.155630 0.023399
vt 0.108755 0.023399
vt 0.929688 0.335938
vt 0.968750 0.335938
vt 0.968750 0.421875
vt 0.929688 0.421875
vt 0.155630 0.296836
vt 0.108755 0.296836
vt 0.015625 0.250000
vt 0.015625 0.296875
vt 0.646484 0.296875
vt 0.552734 0.296875
vt 0.015625 0.015625
vt 0.212171 0.562500
vt 0.212171 0.609375
vt 0.118421 0.609375
vt 0.118421 0.562500
vt 0.981927 0.458612
vt 0.942864 0.458612
vt 0.942864 0.552362
vt 0.981927 0.552362
vt 0.898438 0.062500
vt 0.898438 0.015625
vt 0.804688 0.015625
vt 0.804688 0.062500
vt 0.851332 0.773438
vt 0.898207 0.773438
vt 0.898207 0.867188
vt 0.851332 0.867188
vt 0.562500 0.695312
vt 0.562500 0.648438
vt 0.523438 0.648438
vt 0.523438 0.695312
vt 0.437500 0.695312
vt 0.437500 0.648438
vt 0.484375 0.648438
vt 0.484375 0.695312
vt 0.437500 0.921875
vt 0.437500 0.875000
vt 0.484375 0.875000
vt 0.484375 0.921875
vt 0.437500 0.789062
vt 0.484375 0.789062
vt 0.562500 0.921875
vt 0.562500 0.875000
vt 0.523438 0.875000
vt 0.523438 0.921875
vt 0.562500 0.789062
vt 0.523438 0.789062
vt 0.898438 0.296875
vt 0.898438 0.250000
vt 0.804688 0.250000
vt 0.804688 0.296875
vt 0.898438 0.156250
vt 0.804688 0.156250
vt 0.212171 0.335938
vt 0.212171 0.382812
vt 0.118421 0.382812
vt 0.118421 0.335938
vt 0.212171 0.468750
vt 0.118421 0.468750
vt 0.109375 0.468750
vt 0.109375 0.382812
vt 0.015625 0.382812
vt 0.015625 0.468750
vt 0.156250 0.468750
vt 0.156250 0.382812
vt 0.156250 0.562500
vt 0.109375 0.562500
vt 0.156250 0.609375
vt 0.109375 0.609375
vt 0.937500 0.458984
vt 0.984375 0.458984
vt 0.984375 0.552734
vt 0.937500 0.552734
vt 0.156250 0.335938
vt 0.109375 0.335938
vt 0.460938 0.062500
vt 0.460938 0.015625
vt 0.367188 0.015625
vt 0.367188 0.062500
vt 0.460938 0.250000
vt 0.460938 0.156250
vt 0.367188 0.156250
vt 0.367188 0.250000
vt 0.015625 0.562500
vt 0.015625 0.609375
vt 0.507812 0.156250
vt 0.507812 0.062500
vt 0.507812 0.250000
vt 0.507812 0.296875
vt 0.460938 0.296875
vt 0.898442 0.773438
vt 0.851567 0.773438
vt 0.851567 0.867188
vt 0.898442 0.867188
vt 0.507812 0.015625
vt 0.015625 0.335938
vt 0.367188 0.296875
vn -1.0000 0.0000 0.0000
vn 0.0000 0.0000 -1.0000
vn 1.0000 0.0000 0.0000
vn 0.0000 0.0000 1.0000
vn 0.0000 1.0000 0.0000
vn 0.0000 -1.0000 0.0000
usemtl M_BlackHole
s off
f 9/1/1 3/2/1 4/3/1 14/4/1
f 23/5/2 7/6/2 8/7/2 21/8/2
f 15/9/3 5/10/3 6/11/3 20/12/3
f 34/13/4 1/14/4 2/15/4 32/16/4
f 30/17/5 22/18/5 5/19/5 15/20/5
f 40/21/6 32/22/6 2/23/6 12/24/6
f 33/25/6 38/26/6 14/27/6 4/28/6
f 38/26/6 39/29/6 13/30/6 14/27/6
f 39/29/6 40/21/6 12/24/6 13/30/6
f 23/31/5 28/32/5 17/33/5 7/34/5
f 28/32/5 29/35/5 16/36/5 17/33/5
f 29/35/5 30/17/5 15/20/5 16/36/5
f 7/37/3 17/38/3 18/39/3 8/40/3
f 17/38/3 16/41/3 19/42/3 18/39/3
f 16/41/3 15/9/3 20/12/3 19/42/3
f 1/43/1 11/44/1 12/45/1 2/46/1
f 11/44/1 10/47/1 13/48/1 12/45/1
f 10/47/1 9/1/1 14/4/1 13/48/1
f 26/49/1 27/50/1 30/51/1 29/52/1
f 19/53/6 20/54/6 27/55/6 26/56/6
f 18/57/6 19/53/6 26/56/6 25/58/6
f 8/59/6 18/57/6 25/58/6 21/60/6
f 5/61/4 22/62/4 24/63/4 6/64/4
f 20/54/6 6/65/6 24/66/6 27/55/6
f 28/67/1 23/68/1 21/69/1 25/70/1
f 35/71/3 36/72/3 39/73/3 38/74/3
f 10/75/5 11/76/5 37/77/5 36/78/5
f 9/79/5 10/75/5 36/78/5 35/80/5
f 3/81/5 9/79/5 35/80/5 31/82/5
f 3/83/2 31/84/2 33/85/2 4/86/2
f 11/76/5 1/87/5 34/88/5 37/77/5
f 37/89/3 34/90/3 32/91/3 40/92/3
f 37/89/3 40/92/3 39/73/3 36/72/3
f 24/93/1 22/94/1 30/51/1 27/50/1
f 29/52/1 28/67/1 25/70/1 26/49/1
f 35/71/3 38/74/3 33/95/3 31/96/3
f 49/97/4 43/98/4 44/99/4 54/100/4
f 63/101/5 47/102/5 48/103/5 61/104/5
f 55/105/2 45/106/2 46/107/2 60/108/2
f 74/109/6 41/110/6 42/111/6 72/112/6
f 70/113/3 62/114/3 45/115/3 55/116/3
f 80/117/1 72/118/1 42/119/1 52/120/1
f 73/121/1 78/122/1 54/123/1 44/124/1
f 78/122/1 79/125/1 53/126/1 54/123/1
f 79/125/1 80/117/1 52/120/1 53/126/1
f 63/127/3 68/128/3 57/129/3 47/130/3
f 68/128/3 69/131/3 56/132/3 57/129/3
f 69/131/3 70/113/3 55/116/3 56/132/3
f 47/133/2 57/134/2 58/135/2 48/136/2
f 57/134/2 56/137/2 59/138/2 58/135/2
f 56/137/2 55/105/2 60/108/2 59/138/2
f 41/139/4 51/140/4 52/141/4 42/142/4
f 51/140/4 50/143/4 53/144/4 52/141/4
f 50/143/4 49/97/4 54/100/4 53/144/4
f 66/145/4 67/146/4 70/147/4 69/148/4
f 59/149/1 60/150/1 67/151/1 66/152/1
f 58/153/1 59/149/1 66/152/1 65/154/1
f 48/155/1 58/153/1 65/154/1 61/156/1
f 45/157/6 62/158/6 64/159/6 46/160/6
f 60/150/1 46/161/1 64/162/1 67/151/1
f 68/163/4 63/164/4 61/165/4 65/166/4
f 75/167/2 76/168/2 79/125/2 78/122/2
f 50/169/3 51/170/3 77/171/3 76/172/3
f 49/173/3 50/169/3 76/172/3 75/174/3
f 43/175/3 49/173/3 75/174/3 71/176/3
f 43/177/5 71/178/5 73/179/5 44/180/5
f 51/170/3 41/181/3 74/182/3 77/171/3
f 77/183/2 74/184/2 72/118/2 80/117/2
f 77/183/2 80/117/2 79/125/2 76/168/2
f 64/185/4 62/186/4 70/147/4 67/146/4
f 69/148/4 68/163/4 65/166/4 66/145/4
f 75/167/2 78/122/2 73/121/2 71/187/2
f 89/188/5 83/189/5 84/190/5 94/191/5
f 103/192/1 87/193/1 88/194/1 101/195/1
f 95/196/6 85/197/6 86/198/6 100/199/6
f 114/200/3 81/201/3 82/202/3 112/203/3
f 110/204/2 102/205/2 85/206/2 95/207/2
f 120/208/4 112/209/4 82/210/4 92/211/4
f 113/212/4 118/213/4 94/214/4 84/215/4
f 118/213/4 119/216/4 93/217/4 94/214/4
f 119/216/4 120/208/4 92/211/4 93/217/4
f 103/218/2 108/219/2 97/220/2 87/221/2
f 108/219/2 109/222/2 96/223/2 97/220/2
f 109/222/2 110/204/2 95/207/2 96/223/2
f 87/224/6 97/225/6 98/226/6 88/227/6
f 97/225/6 96/228/6 99/229/6 98/226/6
f 96/228/6 95/196/6 100/199/6 99/229/6
f 81/230/5 91/231/5 92/232/5 82/233/5
f 91/231/5 90/234/5 93/235/5 92/232/5
f 90/234/5 89/188/5 94/191/5 93/235/5
f 106/236/5 107/237/5 110/238/5 109/239/5
f 99/240/4 100/241/4 107/237/4 106/236/4
f 98/242/4 99/240/4 106/236/4 105/243/4
f 88/244/4 98/242/4 105/243/4 101/245/4
f 85/246/3 102/247/3 104/248/3 86/249/3
f 100/241/4 86/250/4 104/251/4 107/237/4
f 117/252/6 114/253/6 112/254/6 120/255/6
f 115/256/6 116/257/6 119/258/6 118/259/6
f 108/260/5 103/261/5 101/245/5 105/243/5
f 90/262/2 91/263/2 117/252/2 116/257/2
f 89/264/2 90/262/2 116/257/2 115/256/2
f 83/265/2 89/264/2 115/256/2 111/266/2
f 83/267/1 111/268/1 113/269/1 84/270/1
f 91/263/2 81/271/2 114/253/2 117/252/2
f 117/252/6 120/255/6 119/258/6 116/257/6
f 109/239/5 108/260/5 105/243/5 106/236/5
f 104/251/5 102/272/5 110/238/5 107/237/5
f 115/256/6 118/259/6 113/273/6 111/266/6
