# Blender v3.1.2 OBJ File: 'PixelPerfect_Objects.blend'
# www.blender.org
mtllib Juicy.mtl
o Juicy_Cube.443
v -0.437500 -1.000000 0.250000
v -0.437500 0.562500 0.250000
v -0.437500 -1.000000 -0.250000
v -0.437500 0.562500 -0.250000
v 0.437500 -1.000000 0.250000
v 0.437500 0.562500 0.250000
v 0.437500 -1.000000 -0.250000
v 0.437500 0.562500 -0.250000
v -0.250000 0.562500 0.000000
v -0.250000 1.000000 0.000000
v -0.250000 0.562500 -0.062500
v -0.250000 1.000000 -0.062500
v -0.187500 0.562500 0.000000
v -0.187500 1.000000 0.000000
v -0.187500 0.562500 -0.062500
v -0.187500 1.000000 -0.062500
v -0.187500 -1.000000 -0.250000
v -0.250000 -1.000000 -0.250000
v -0.250000 0.562500 -0.250000
v -0.187500 0.562500 -0.250000
v -0.250000 -1.000000 0.250000
v -0.187500 -1.000000 0.250000
v -0.187500 0.562500 0.250000
v -0.250000 0.562500 0.250000
v -0.437500 -1.000000 -0.062500
v -0.437500 -1.000000 0.000000
v -0.437500 0.562500 0.000000
v -0.437500 0.562500 -0.062500
v 0.437500 -1.000000 0.000000
v 0.437500 -1.000000 -0.062500
v 0.437500 0.562500 -0.062500
v 0.437500 0.562500 0.000000
v -0.437500 -0.437500 0.250000
v -0.437500 -0.187500 0.250000
v -0.437500 -0.687500 0.250000
v -0.437500 0.125000 0.250000
v -0.250000 -1.000000 -0.062500
v -0.250000 -1.000000 0.000000
v -0.187500 -1.000000 -0.062500
v -0.187500 -1.000000 0.000000
v -0.437500 0.375000 0.250000
v -0.437500 0.375000 -0.250000
v -0.437500 0.125000 -0.250000
v -0.437500 -0.187500 -0.250000
v -0.437500 -0.437500 -0.250000
v -0.437500 -0.687500 -0.250000
v 0.437500 0.375000 -0.250000
v 0.437500 0.125000 -0.250000
v 0.437500 -0.187500 -0.250000
v 0.437500 -0.437500 -0.250000
v 0.437500 -0.687500 -0.250000
v 0.437500 0.375000 0.250000
v 0.437500 0.125000 0.250000
v 0.437500 -0.187500 0.250000
v 0.437500 -0.437500 0.250000
v 0.437500 -0.687500 0.250000
v -0.187500 0.375000 0.250000
v -0.187500 0.125000 0.250000
v -0.187500 -0.187500 0.250000
v -0.187500 -0.437500 0.250000
v -0.187500 -0.687500 0.250000
v -0.250000 0.375000 0.250000
v -0.250000 0.125000 0.250000
v -0.250000 -0.187500 0.250000
v -0.250000 -0.437500 0.250000
v -0.250000 -0.687500 0.250000
v -0.250000 0.375000 -0.250000
v -0.250000 0.125000 -0.250000
v -0.250000 -0.187500 -0.250000
v -0.250000 -0.437500 -0.250000
v -0.250000 -0.687500 -0.250000
v -0.187500 0.375000 -0.250000
v -0.187500 0.125000 -0.250000
v -0.187500 -0.187500 -0.250000
v -0.187500 -0.437500 -0.250000
v -0.187500 -0.687500 -0.250000
v 0.437500 0.375000 -0.062500
v 0.437500 0.125000 -0.062500
v 0.437500 -0.187500 -0.062500
v 0.437500 -0.437500 -0.062500
v 0.437500 -0.687500 -0.062500
v 0.437500 0.375000 0.000000
v 0.437500 0.125000 0.000000
v 0.437500 -0.187500 0.000000
v 0.437500 -0.437500 0.000000
v 0.437500 -0.687500 0.000000
v -0.437500 0.375000 0.000000
v -0.437500 0.125000 0.000000
v -0.437500 -0.187500 0.000000
v -0.437500 -0.437500 0.000000
v -0.437500 -0.687500 0.000000
v -0.437500 0.375000 -0.062500
v -0.437500 0.125000 -0.062500
v -0.437500 -0.187500 -0.062500
v -0.437500 -0.437500 -0.062500
v -0.437500 -0.687500 -0.062500
vt 0.570312 0.860705
vt 0.570312 0.953090
vt 0.632812 0.953090
vt 0.632812 0.860705
vt 0.726501 0.867188
vt 0.726501 0.953125
vt 0.999938 0.953125
vt 0.999938 0.867188
vt 0.554688 0.860705
vt 0.554688 0.953090
vt 0.468750 0.953090
vt 0.468750 0.860705
vt 0.085938 0.867188
vt 0.085938 0.953125
vt 0.000000 0.953125
vt 0.000000 0.867188
vt 0.359375 0.132812
vt 0.117188 0.132812
vt 0.117188 0.226562
vt 0.359375 0.226562
vt 0.070312 0.109375
vt -0.000000 0.109375
vt -0.000000 0.015625
vt 0.070312 0.015625
vt 0.968750 0.960938
vt 0.781250 0.960938
vt 0.781250 0.992188
vt 0.968750 0.992188
vt 0.968750 0.960938
vt 0.781250 0.960938
vt 0.781250 0.992188
vt 0.968750 0.992188
vt 0.781250 0.960938
vt 0.968750 0.960938
vt 0.968750 0.992188
vt 0.781250 0.992188
vt 0.554688 0.403270
vt 0.554688 0.510502
vt 0.570312 0.510502
vt 0.570312 0.403270
vt 0.726562 0.960938
vt 0.750000 0.960938
vt 0.750000 0.992188
vt 0.726562 0.992188
vt 0.335938 0.109375
vt 0.093750 0.109375
vt 0.093750 0.015625
vt 0.335938 0.015625
vt 0.460938 0.132812
vt 0.382812 0.132812
vt 0.382812 0.226562
vt 0.460938 0.226562
vt 0.390625 0.867188
vt 0.390625 0.953125
vt 0.109375 0.953125
vt 0.109375 0.867188
vt 0.617126 0.867188
vt 0.617126 0.953125
vt 0.703063 0.953125
vt 0.703063 0.867188
vt 0.382812 0.039062
vt 0.359375 0.039062
vt 0.359375 0.109375
vt 0.382812 0.109375
vt 0.460938 0.039062
vt 0.460938 0.109375
vt 0.093750 0.203125
vt 0.070312 0.203125
vt 0.070312 0.132812
vt 0.093750 0.132812
vt 0.554688 0.265401
vt 0.570312 0.265401
vt 0.335938 0.203125
vt 0.335938 0.132812
vt -0.000000 0.203125
vt -0.000000 0.132812
vt 0.117188 0.039062
vt 0.117188 0.109375
vt 0.632812 0.860705
vt 0.632812 0.953090
vt 0.578125 0.953090
vt 0.578125 0.860705
vt 0.468750 0.860705
vt 0.468750 0.953090
vt 0.554688 0.953090
vt 0.554688 0.860705
vt 0.554688 0.617733
vt 0.570312 0.617733
vt 0.554688 0.755602
vt 0.570312 0.755602
vt 0.554688 0.862833
vt 0.570312 0.862833
vt 0.468750 0.265401
vt 0.468750 0.403270
vt 0.468750 0.510502
vt 0.468750 0.617733
vt 0.468750 0.755602
vt 0.468750 0.862833
vt 0.578125 0.265401
vt 0.578125 0.403270
vt 0.554688 0.403270
vt 0.554688 0.265401
vt 0.578125 0.510502
vt 0.554688 0.510502
vt 0.578125 0.617733
vt 0.554688 0.617733
vt 0.578125 0.755602
vt 0.554688 0.755602
vt 0.578125 0.862833
vt 0.554688 0.862833
vt 0.632812 0.265401
vt 0.632812 0.403270
vt 0.632812 0.510502
vt 0.632812 0.617733
vt 0.632812 0.755602
vt 0.632812 0.862833
vt 0.703063 0.265625
vt 0.703063 0.398438
vt 0.726501 0.398438
vt 0.726501 0.265625
vt 0.703063 0.507812
vt 0.726501 0.507812
vt 0.703063 0.617188
vt 0.726501 0.617188
vt 0.703063 0.757812
vt 0.726501 0.757812
vt 0.617126 0.265625
vt 0.617126 0.398438
vt 0.617126 0.507812
vt 0.617126 0.617188
vt 0.617126 0.757812
vt 0.109375 0.265625
vt 0.109375 0.398438
vt 0.085938 0.398438
vt 0.085938 0.265625
vt 0.109375 0.507812
vt 0.085938 0.507812
vt 0.109375 0.617188
vt 0.085938 0.617188
vt 0.109375 0.757812
vt 0.085938 0.757812
vt 0.390625 0.265625
vt 0.390625 0.398438
vt 0.390625 0.507812
vt 0.390625 0.617188
vt 0.390625 0.757812
vt 0.000000 0.398438
vt 0.000000 0.265625
vt 0.000000 0.507812
vt 0.000000 0.617188
vt 0.000000 0.757812
vt 0.468750 0.403270
vt 0.468750 0.265401
vt 0.468750 0.510502
vt 0.468750 0.617733
vt 0.468750 0.755602
vt 0.468750 0.862833
vt 0.999938 0.398438
vt 0.999938 0.265625
vt 0.999938 0.507812
vt 0.999938 0.617188
vt 0.999938 0.757812
vt 0.632812 0.403270
vt 0.632812 0.265401
vt 0.632812 0.510502
vt 0.632812 0.617733
vt 0.632812 0.755602
vt 0.632812 0.862833
vn -1.0000 0.0000 0.0000
vn 0.0000 0.0000 -1.0000
vn 1.0000 0.0000 0.0000
vn 0.0000 0.0000 1.0000
vn 0.0000 -1.0000 0.0000
vn 0.0000 1.0000 0.0000
usemtl M_Juicy
s off
f 92/1/1 28/2/1 4/3/1 42/4/1
f 72/5/2 20/6/2 8/7/2 47/8/2
f 82/9/3 32/10/3 6/11/3 52/12/3
f 62/13/4 24/14/4 2/15/4 41/16/4
f 40/17/5 29/18/5 5/19/5 22/20/5
f 9/21/6 27/22/6 2/23/6 24/24/6
f 9/25/1 10/26/1 12/27/1 11/28/1
f 11/29/2 12/30/2 16/31/2 15/32/2
f 15/32/3 16/31/3 14/33/3 13/34/3
f 13/35/4 14/36/4 10/26/4 9/25/4
f 91/37/1 90/38/1 95/39/1 96/40/1
f 16/41/6 12/42/6 10/43/6 14/44/6
f 32/45/6 13/46/6 23/47/6 6/48/6
f 13/46/6 9/21/6 24/24/6 23/47/6
f 26/49/5 38/50/5 21/51/5 1/52/5
f 38/50/5 40/17/5 22/20/5 21/51/5
f 52/53/4 6/54/4 23/55/4 57/56/4
f 57/56/4 23/55/4 24/14/4 62/13/4
f 42/57/2 4/58/2 19/59/2 67/60/2
f 67/60/2 19/59/2 20/6/2 72/5/2
f 18/61/5 17/62/5 39/63/5 37/64/5
f 37/64/5 39/63/5 40/17/5 38/50/5
f 3/65/5 18/61/5 37/64/5 25/66/5
f 25/66/5 37/64/5 38/50/5 26/49/5
f 20/67/6 19/68/6 11/69/6 15/70/6
f 26/71/1 91/37/1 96/40/1 25/72/1
f 8/73/6 20/67/6 15/70/6 31/74/6
f 31/74/6 15/70/6 13/46/6 32/45/6
f 19/68/6 4/75/6 28/76/6 11/69/6
f 11/69/6 28/76/6 27/22/6 9/21/6
f 17/62/5 7/77/5 30/78/5 39/63/5
f 39/63/5 30/78/5 29/18/5 40/17/5
f 47/79/3 8/80/3 31/81/3 77/82/3
f 77/82/3 31/81/3 32/10/3 82/9/3
f 41/83/1 2/84/1 27/85/1 87/86/1
f 87/86/1 27/85/1 28/2/1 92/1/1
f 90/38/1 89/87/1 94/88/1 95/39/1
f 89/87/1 88/89/1 93/90/1 94/88/1
f 88/89/1 87/91/1 92/92/1 93/90/1
f 1/93/1 35/94/1 91/37/1 26/71/1
f 35/94/1 33/95/1 90/38/1 91/37/1
f 33/95/1 34/96/1 89/87/1 90/38/1
f 34/96/1 36/97/1 88/89/1 89/87/1
f 36/97/1 41/98/1 87/91/1 88/89/1
f 30/99/3 81/100/3 86/101/3 29/102/3
f 81/100/3 80/103/3 85/104/3 86/101/3
f 80/103/3 79/105/3 84/106/3 85/104/3
f 79/105/3 78/107/3 83/108/3 84/106/3
f 78/107/3 77/109/3 82/110/3 83/108/3
f 7/111/3 51/112/3 81/100/3 30/99/3
f 51/112/3 50/113/3 80/103/3 81/100/3
f 50/113/3 49/114/3 79/105/3 80/103/3
f 49/114/3 48/115/3 78/107/3 79/105/3
f 48/115/3 47/116/3 77/109/3 78/107/3
f 18/117/2 71/118/2 76/119/2 17/120/2
f 71/118/2 70/121/2 75/122/2 76/119/2
f 70/121/2 69/123/2 74/124/2 75/122/2
f 69/123/2 68/125/2 73/126/2 74/124/2
f 68/125/2 67/60/2 72/5/2 73/126/2
f 3/127/2 46/128/2 71/118/2 18/117/2
f 46/128/2 45/129/2 70/121/2 71/118/2
f 45/129/2 44/130/2 69/123/2 70/121/2
f 44/130/2 43/131/2 68/125/2 69/123/2
f 43/131/2 42/57/2 67/60/2 68/125/2
f 22/132/4 61/133/4 66/134/4 21/135/4
f 61/133/4 60/136/4 65/137/4 66/134/4
f 60/136/4 59/138/4 64/139/4 65/137/4
f 59/138/4 58/140/4 63/141/4 64/139/4
f 58/140/4 57/56/4 62/13/4 63/141/4
f 5/142/4 56/143/4 61/133/4 22/132/4
f 56/143/4 55/144/4 60/136/4 61/133/4
f 55/144/4 54/145/4 59/138/4 60/136/4
f 54/145/4 53/146/4 58/140/4 59/138/4
f 53/146/4 52/53/4 57/56/4 58/140/4
f 21/135/4 66/134/4 35/147/4 1/148/4
f 66/134/4 65/137/4 33/149/4 35/147/4
f 65/137/4 64/139/4 34/150/4 33/149/4
f 64/139/4 63/141/4 36/151/4 34/150/4
f 63/141/4 62/13/4 41/16/4 36/151/4
f 29/102/3 86/101/3 56/152/3 5/153/3
f 86/101/3 85/104/3 55/154/3 56/152/3
f 85/104/3 84/106/3 54/155/3 55/154/3
f 84/106/3 83/108/3 53/156/3 54/155/3
f 83/108/3 82/110/3 52/157/3 53/156/3
f 17/120/2 76/119/2 51/158/2 7/159/2
f 76/119/2 75/122/2 50/160/2 51/158/2
f 75/122/2 74/124/2 49/161/2 50/160/2
f 74/124/2 73/126/2 48/162/2 49/161/2
f 73/126/2 72/5/2 47/8/2 48/162/2
f 25/72/1 96/40/1 46/163/1 3/164/1
f 96/40/1 95/39/1 45/165/1 46/163/1
f 95/39/1 94/88/1 44/166/1 45/165/1
f 94/88/1 93/90/1 43/167/1 44/166/1
f 93/90/1 92/92/1 42/168/1 43/167/1
