# Blender v3.1.2 OBJ File: 'PixelPerfect_Objects.blend'
# www.blender.org
mtllib TVRemote.mtl
o TVRemote_Cube.301
v -0.366218 -1.000000 0.187500
v -0.366218 1.250000 0.187500
v -0.366218 -1.000000 -0.062500
v -0.366218 1.250000 -0.062500
v 0.383782 -1.000000 0.187500
v 0.383782 1.250000 0.187500
v 0.383782 -1.000000 -0.062500
v 0.383782 1.250000 -0.062500
vt 0.587891 1.000000
vt 0.587891 0.218750
vt 0.720703 0.218750
vt 0.720703 1.000000
vt 0.548828 0.218750
vt 0.548828 1.000000
vt 0.291016 1.000000
vt 0.291016 0.218750
vt 0.722653 0.998229
vt 0.722653 0.216979
vt 0.589840 0.216979
vt 0.589840 0.998229
vt 0.273438 0.217446
vt 0.273438 0.998696
vt 0.015625 0.998696
vt 0.015625 0.217446
vt 0.720703 0.585938
vt 0.720703 0.320312
vt 0.587891 0.320312
vt 0.587891 0.585938
vt 0.720703 0.016148
vt 0.720703 0.273961
vt 0.587891 0.273961
vt 0.587891 0.016148
vn -1.0000 0.0000 0.0000
vn 0.0000 0.0000 -1.0000
vn 1.0000 0.0000 0.0000
vn 0.0000 0.0000 1.0000
vn 0.0000 -1.0000 0.0000
vn 0.0000 1.0000 0.0000
usemtl M_TVRemote
s off
f 1/1/1 2/2/1 4/3/1 3/4/1
f 3/5/2 4/6/2 8/7/2 7/8/2
f 7/9/3 8/10/3 6/11/3 5/12/3
f 5/13/4 6/14/4 2/15/4 1/16/4
f 3/17/5 7/18/5 5/19/5 1/20/5
f 8/21/6 4/22/6 2/23/6 6/24/6
